<svg version="1.1" id="Layer_1" xmlns="http://www.w3.org/2000/svg" xmlns:xlink="http://www.w3.org/1999/xlink" x="0px" y="0px"
	 width="100%" viewBox="0 0 672 672" enable-background="new 0 0 672 672" xml:space="preserve">
<path fill="#000000" opacity="1.000000" stroke="none" 
	d="
M178.269806,55.184059 
	C209.657593,38.799755 242.212952,26.727055 276.710754,20.352526 
	C294.715576,17.025579 312.955627,14.364789 331.222412,14.170732 
	C350.655945,13.964279 370.170990,15.781831 389.374908,18.925140 
	C440.059692,27.221262 486.238525,46.813931 527.693054,77.032845 
	C579.752441,114.982376 617.866577,164.022491 641.380493,224.059784 
	C654.279663,256.995087 661.180542,291.303253 663.478333,326.662750 
	C665.792175,362.268860 659.976379,396.661041 650.318909,430.681671 
	C644.224121,452.151825 638.070984,473.590698 630.260437,494.521423 
	C626.774902,503.862000 621.108948,511.335510 613.009460,517.225769 
	C604.393005,523.492065 596.391541,530.585388 587.518921,536.531555 
	C586.289673,537.355286 585.072998,538.380920 584.238342,539.582458 
	C574.998352,552.883972 562.189209,562.868408 551.375183,574.717590 
	C532.756836,595.117981 510.880646,611.619202 486.194519,624.536865 
	C476.273468,629.728333 467.438263,637.124390 457.499298,642.577332 
	C449.075348,647.199219 440.350983,651.098755 432.302155,656.643677 
	C424.974396,661.691833 415.254303,661.918884 406.443604,663.669678 
	C384.366333,668.056885 362.168488,671.444580 339.571259,671.368774 
	C328.095093,671.330261 317.285522,667.631287 306.240540,665.298279 
	C272.202118,658.108826 238.194443,650.771484 204.210403,643.329041 
	C196.648376,641.672974 190.140793,637.341675 183.393692,633.765930 
	C136.169937,608.738953 96.745544,574.493896 66.175636,530.797729 
	C40.054050,493.459961 21.251423,452.574860 13.684179,407.135040 
	C5.759124,359.546570 3.871429,312.002563 16.760180,264.970215 
	C28.865892,220.795258 46.393730,179.153366 75.109077,142.696732 
	C103.562759,106.572273 137.352417,77.042633 178.269806,55.184059 
M249.265823,542.351196 
	C250.606537,547.334290 251.913467,552.326843 253.294632,557.298645 
	C256.635651,569.325439 259.683105,581.446838 263.459412,593.336121 
	C267.791534,606.975403 275.811829,617.715271 289.993744,622.488037 
	C297.763031,625.102722 305.843353,626.444702 314.041718,626.643433 
	C339.248413,627.254333 364.343079,625.739197 389.218994,621.622803 
	C419.188660,616.663635 447.902740,607.957153 474.028503,591.915405 
	C493.548370,579.929810 510.436401,564.423767 528.890625,551.014099 
	C529.521423,550.555786 530.258728,549.966675 529.670593,548.689758 
	C528.592224,548.347961 527.359192,547.892944 526.093140,547.565308 
	C484.508270,536.803650 442.917480,526.064636 401.334137,515.296936 
	C387.934021,511.827026 374.662048,507.955475 362.441772,501.246429 
	C359.942383,499.874237 357.085632,498.606262 356.103882,495.050537 
	C359.293243,494.097137 362.018341,494.991669 364.658051,495.673737 
	C394.488556,503.381378 424.298920,511.167145 454.118408,518.917603 
	C477.977600,525.118896 501.897797,531.001465 526.366577,534.407410 
	C535.998047,535.748047 544.715149,535.841003 548.707581,524.605774 
	C549.141907,523.383423 550.135315,522.365784 550.829651,521.228943 
	C563.508789,500.469543 574.325928,478.686554 586.034668,457.393799 
	C594.261963,442.432007 601.813293,427.303711 605.442078,410.500641 
	C606.813782,404.149170 607.779907,397.634064 611.025452,391.916840 
	C613.896790,386.858887 614.160400,381.577271 613.990540,375.989502 
	C613.620789,363.823181 610.196167,351.909760 610.758423,339.720123 
	C611.498596,323.672791 608.046875,308.270416 604.378784,292.875244 
	C603.825500,290.552887 603.975037,287.865295 601.641602,285.647461 
	C597.760071,289.033417 593.816833,292.293884 590.074158,295.770294 
	C576.770325,308.127777 563.770325,320.822754 550.223755,332.906128 
	C523.480835,356.760345 495.110199,378.628815 466.868744,400.664429 
	C448.754852,414.797852 432.462891,431.174011 413.881836,444.772003 
	C397.067291,457.077179 380.146515,469.220734 360.643951,477.129669 
	C357.420868,478.436737 353.174408,478.073914 351.019287,480.758728 
	C348.747620,483.588684 351.217010,487.507721 350.805725,490.944519 
	C350.773071,491.217529 350.428833,491.453278 349.737976,492.329926 
	C309.356140,473.417725 268.810516,454.428833 227.694214,435.172668 
	C230.743805,472.146088 239.496826,506.936646 249.265823,542.351196 
M442.523071,319.900635 
	C441.479279,309.963196 440.217682,299.972931 441.858673,290.050018 
	C442.512878,286.094360 441.330505,284.156189 438.429321,281.850922 
	C408.361328,257.959137 374.646271,240.208374 340.447754,223.244003 
	C337.432434,221.748230 334.469666,221.339554 331.331268,222.682556 
	C324.600952,225.562622 317.882446,228.471024 311.130463,231.299423 
	C283.537781,242.858032 257.209045,256.658234 233.304703,274.823700 
	C230.150620,277.220581 227.547119,279.857025 226.506271,283.764587 
	C222.813278,297.628998 220.212051,311.694672 219.410446,326.027283 
	C217.779037,355.196503 223.518112,383.695526 227.568878,412.340668 
	C227.995102,415.354675 229.978180,417.211823 232.641479,418.702393 
	C246.735886,426.590393 260.611481,434.879913 274.834106,442.525726 
	C292.130615,451.823975 309.415680,461.183228 327.890015,468.094635 
	C334.450470,470.548981 340.381866,470.406097 346.471161,466.701843 
	C359.131226,459.000549 372.072327,451.759399 384.697693,444.003204 
	C402.715027,432.934479 420.664734,421.748932 437.994415,409.605072 
	C444.300232,405.186249 447.377228,399.759277 447.136017,391.564331 
	C446.440033,367.917664 444.616394,344.366547 442.523071,319.900635 
M154.365921,557.120178 
	C174.985703,572.334045 193.693680,590.186462 216.484512,602.397644 
	C225.858002,607.419922 235.030991,613.211731 245.811493,614.702881 
	C258.146271,616.408936 258.787598,615.473511 255.503662,603.820251 
	C255.413315,603.499695 255.290939,603.188354 255.197052,602.868652 
	C243.466202,562.926086 232.663864,522.741028 223.020859,482.236237 
	C215.917831,452.400452 210.407654,422.333588 207.478699,391.786652 
	C206.157867,378.011230 205.672897,364.197296 205.185333,350.395782 
	C204.497528,330.927216 203.810471,311.389038 209.268005,292.315002 
	C209.643311,291.003326 210.487915,289.486542 209.031754,288.253540 
	C207.220566,288.151031 206.265579,289.488678 205.097717,290.344482 
	C195.422791,297.434174 185.699249,304.461273 176.143341,311.708923 
	C155.442932,327.409088 134.277634,342.537964 115.104401,360.153259 
	C100.732475,373.357391 88.457840,388.609467 74.444847,402.162903 
	C70.813690,405.675049 69.582352,409.511200 70.645042,414.319153 
	C71.409691,417.778656 71.147285,421.244904 70.694099,424.750061 
	C69.771538,431.885803 68.977654,439.166534 72.196350,445.906799 
	C82.888748,468.297699 93.502365,490.775513 107.509552,511.346405 
	C119.871628,529.501282 138.069992,541.876892 154.365921,557.120178 
M313.583344,63.294209 
	C285.564575,63.968132 258.889221,70.838562 233.150040,81.410622 
	C202.422241,94.031715 174.051132,110.566696 149.947083,133.782852 
	C145.207123,138.348206 145.565399,139.822037 151.770767,141.547119 
	C161.717117,144.312164 171.729492,146.847656 181.635956,149.746735 
	C218.815002,160.626953 257.126190,167.641266 292.853882,183.512253 
	C309.548065,190.928146 327.402771,195.568390 343.405853,204.827423 
	C358.099762,213.328995 373.066315,221.371826 387.983643,229.491516 
	C406.677612,239.666870 425.523560,249.853653 440.051453,266.070648 
	C440.870239,266.984680 441.734497,268.273895 443.581451,267.496002 
	C444.134949,263.753510 443.683868,259.979858 443.161499,256.205414 
	C440.653778,238.085846 437.702057,220.014099 435.738464,201.835663 
	C431.426483,161.916367 423.604767,122.900879 408.286865,85.593460 
	C405.945465,79.890892 402.401917,76.070450 396.449188,74.495049 
	C388.395142,72.363518 380.317078,70.471268 371.924652,70.163124 
	C365.104767,69.912720 358.273529,69.480118 351.632080,67.719200 
	C339.475128,64.495903 327.093109,63.235214 313.583344,63.294209 
M562.014343,173.463547 
	C547.863708,157.282013 533.223328,141.572037 517.521606,126.867302 
	C507.296417,117.291412 496.958038,107.867355 485.000244,100.438393 
	C478.451691,96.370003 471.687683,92.910637 463.748444,92.355339 
	C458.945679,92.019424 454.154175,91.364532 449.393127,90.624603 
	C440.380615,89.223923 431.653778,86.557861 422.658081,83.881622 
	C422.247681,86.161041 422.507965,87.900200 422.897369,89.702583 
	C429.784790,121.581451 437.133942,153.355576 443.778839,185.292847 
	C451.735443,223.534500 456.121246,262.145111 458.070526,301.076233 
	C459.544861,330.522034 459.514984,360.003784 459.511292,389.480255 
	C459.511017,391.564056 459.264038,393.841522 461.394501,395.538055 
	C465.660095,394.253754 469.218201,392.083893 471.452850,388.044098 
	C476.243195,379.384064 482.442505,372.476776 492.035156,368.614502 
	C499.820679,365.479828 506.120483,359.994934 511.424927,353.285278 
	C517.595093,345.480591 523.153137,337.174927 531.321472,331.008667 
	C547.537720,318.766998 563.349487,305.993225 578.590942,292.543915 
	C584.953003,286.929962 591.463318,281.442413 596.725769,274.689178 
	C598.791687,272.038025 599.656067,269.632629 598.214722,266.066559 
	C592.355347,251.569580 588.548157,236.362701 583.381714,221.630600 
	C581.177063,215.344131 581.775085,208.775040 579.824463,202.565048 
	C576.381470,191.604263 571.344238,181.647781 562.014343,173.463547 
M108.996262,357.498932 
	C111.442268,354.774048 113.866714,352.029419 116.338074,349.327728 
	C126.302185,338.434967 134.331512,325.695374 147.121521,317.503510 
	C160.327805,309.045013 172.846802,299.711426 184.109116,288.703430 
	C188.733643,284.183319 193.785645,280.004608 199.687210,277.101532 
	C206.581985,273.709930 212.978928,269.505127 219.399506,265.316803 
	C236.681610,254.043259 253.190857,241.502502 272.098816,232.875839 
	C286.033600,226.518158 300.271667,220.808685 313.722534,213.421066 
	C316.126282,212.100861 318.666962,210.848709 320.322296,207.751968 
	C309.364746,204.676956 298.758423,201.959793 288.312469,198.724792 
	C239.496140,183.606827 190.727173,168.335876 141.933014,153.146133 
	C133.725967,150.591278 133.783981,150.768234 128.133118,157.608368 
	C122.525093,164.396652 117.609848,172.370728 110.585678,177.198395 
	C103.924774,181.776382 100.126114,187.330017 96.564972,193.980881 
	C83.969292,217.504807 72.529427,241.486115 64.186745,266.919617 
	C60.683430,277.599823 58.357315,287.823242 62.684814,298.890533 
	C64.633759,303.874817 66.569214,309.439667 64.862450,314.989288 
	C61.052185,327.378571 60.921593,340.241608 59.352142,352.932556 
	C57.608788,367.029663 62.298649,379.817932 66.379753,392.791107 
	C66.448524,393.009735 66.927528,393.099365 67.424683,393.358368 
	C68.029655,393.030823 68.843353,392.763245 69.436378,392.243744 
	C82.460831,380.834167 95.460838,369.396637 108.996262,357.498932 
z"/>
</svg>