<svg version="1.1" id="Layer_1" xmlns="http://www.w3.org/2000/svg" xmlns:xlink="http://www.w3.org/1999/xlink" x="0px" y="0px"
	 width="100%" viewBox="0 0 1024 1024" enable-background="new 0 0 1024 1024" xml:space="preserve">
<path fill="#000000" opacity="1.000000" stroke="none" 
	d="
M119.678818,346.836243 
	C144.830688,275.221832 192.579163,227.053146 267.182678,212.004410 
	C349.455597,195.408615 417.634460,222.358810 468.178741,290.058777 
	C486.912964,315.151794 496.968658,344.303986 501.372833,375.309540 
	C504.428802,396.823853 505.372711,418.371002 501.342743,439.865875 
	C499.180145,451.400604 494.207855,462.018433 489.781952,472.791901 
	C487.117950,479.276550 484.827576,485.874329 483.538147,492.772186 
	C483.007782,495.609283 482.022522,498.240112 480.581573,500.680267 
	C468.014252,521.962280 452.461609,540.703308 433.070343,556.135925 
	C431.864899,557.095337 430.817963,558.717590 427.578522,557.865356 
	C439.588806,545.318237 451.579773,533.573792 462.049164,520.447388 
	C451.556000,527.440918 442.607666,536.329285 432.791809,544.142822 
	C419.240540,554.929688 405.228821,565.263489 392.627563,577.084595 
	C378.924713,589.939087 361.458466,592.130859 344.801392,596.024292 
	C309.959381,604.168396 275.524902,600.409119 242.249390,587.854004 
	C175.230209,562.567078 134.467636,513.457520 116.198822,445.235809 
	C107.438004,412.520050 109.456642,379.588196 119.678818,346.836243 
M362.687225,270.990692 
	C368.847992,293.230835 377.443420,353.639923 375.172150,359.275024 
	C373.476929,358.797180 372.477112,357.410614 371.326355,356.271545 
	C364.896973,349.907196 357.891327,344.244110 349.958710,339.906128 
	C324.692169,326.088989 299.788605,311.455322 272.265930,302.350616 
	C247.134323,294.036896 221.577682,287.148285 196.001923,280.346985 
	C193.980103,279.809326 191.714233,279.834473 190.180435,278.310425 
	C189.822968,276.916412 190.669174,276.270905 191.351425,275.569641 
	C202.489822,264.120819 215.153305,254.774338 229.492203,247.683563 
	C244.387192,240.317825 260.384186,236.289597 276.296753,231.984406 
	C279.303711,231.170868 282.342957,230.400024 285.046783,227.347443 
	C276.261536,225.250504 268.153107,226.209824 260.422760,228.461868 
	C226.055847,238.473602 199.781708,261.072052 174.333176,284.795685 
	C171.893463,287.070038 170.495544,290.334930 170.091949,293.945404 
	C173.047089,292.443909 175.850586,290.887512 178.055481,288.721710 
	C182.418686,284.435913 186.896255,284.306671 192.569855,286.141571 
	C224.252701,296.388031 256.048126,306.286743 287.815491,316.271179 
	C291.711639,317.495728 295.669952,318.522522 300.342377,319.852417 
	C296.606171,323.717041 292.470581,325.417175 288.586975,327.433136 
	C275.742035,334.100983 261.947327,338.995758 250.190811,347.689911 
	C235.386627,358.637909 218.037857,365.992889 205.138672,379.640289 
	C204.019073,380.824799 202.406128,381.532135 201.067871,382.522614 
	C195.189697,386.873352 188.513977,390.315857 183.924072,396.177399 
	C171.297516,412.302124 156.069580,425.696808 140.172760,438.406769 
	C138.714188,439.572937 137.919540,440.744507 138.254410,442.625488 
	C138.978378,446.692108 139.654114,450.767273 140.349564,454.838959 
	C140.399033,448.789032 141.790970,443.235657 145.979126,438.722321 
	C152.318710,431.890442 158.368805,424.720581 165.248657,418.472534 
	C184.512253,400.977936 205.625381,385.761047 226.327957,370.051392 
	C227.798187,368.935760 229.331329,367.260040 231.557220,368.311249 
	C232.340881,369.517426 231.899979,370.651550 231.741745,371.793304 
	C230.144043,383.320496 227.216034,394.743591 227.611633,406.443390 
	C228.332809,427.773407 231.949951,448.765717 235.853485,469.708008 
	C241.748093,501.332123 250.597351,532.192139 259.716431,562.988953 
	C260.394257,565.278076 261.826599,567.561401 260.814301,570.142822 
	C258.758484,570.992188 257.166412,569.822510 255.521225,569.193848 
	C246.498596,565.745972 237.572433,562.027771 228.462143,558.833008 
	C221.408066,556.359314 215.191452,552.651001 209.588989,547.837402 
	C200.111191,539.694031 190.905380,531.221191 181.212616,523.345398 
	C174.067871,517.540039 168.717636,510.476562 164.166260,502.655243 
	C159.388550,494.444946 155.043457,486.008698 150.851715,477.482788 
	C148.475128,472.648895 146.606384,467.477234 142.787003,462.937927 
	C139.559830,469.600037 142.278168,475.091339 144.878159,480.409912 
	C159.200562,509.707886 180.907227,532.448364 207.207382,551.354187 
	C244.503220,578.164124 285.819855,587.662170 331.106873,582.047668 
	C358.573792,578.642517 383.284912,568.223816 407.230377,554.827698 
	C429.756866,542.225342 443.964813,522.980652 454.850403,500.666718 
	C446.622742,504.464111 443.153595,512.599121 438.197327,519.386047 
	C436.642548,521.515198 435.047333,522.742188 432.429321,522.313477 
	C419.813904,520.247681 406.844421,520.167236 394.616425,515.944031 
	C374.631134,509.041565 354.720337,501.923676 334.741516,495.002350 
	C329.615204,493.226379 324.507294,491.216614 319.019012,490.798218 
	C317.496918,493.439575 318.669250,494.828705 320.822144,495.626556 
	C339.088623,502.395630 357.024231,510.153076 375.727966,515.618652 
	C392.494537,520.518127 409.570984,524.357361 426.511017,528.663330 
	C427.605835,528.941650 428.916626,528.902710 429.188873,530.996704 
	C426.983124,532.775757 424.575378,534.763245 422.120300,536.690430 
	C407.843567,547.897278 393.845673,559.446045 376.784637,566.517639 
	C349.515839,577.820251 320.896606,579.581299 291.949799,578.976746 
	C285.662750,578.845520 279.398407,577.517334 273.824249,574.028809 
	C267.092957,569.816223 264.352814,563.016907 262.013275,556.035156 
	C253.109985,529.465820 246.926712,502.202179 241.873840,474.683258 
	C240.951584,469.660492 239.150330,464.505646 240.728455,458.350677 
	C266.149445,470.215240 290.402039,483.241211 317.186615,494.405853 
	C314.619049,486.336914 320.023132,485.491028 324.184601,483.645782 
	C332.890350,479.785553 341.364716,475.483398 348.933014,469.662140 
	C370.842743,452.809906 391.986389,435.001129 413.935303,418.172058 
	C432.274933,404.110443 448.938599,387.889557 465.584076,371.781097 
	C467.617706,369.813049 469.341095,367.037140 472.767670,367.082581 
	C474.735504,369.376831 474.177216,371.992157 474.093170,374.394958 
	C473.335815,396.045380 473.105896,417.701569 473.289276,439.361664 
	C473.319733,442.961548 472.584045,446.699707 474.679749,450.088562 
	C475.373993,451.211243 474.676392,452.262360 474.044006,453.312378 
	C466.552094,465.752441 460.933075,479.117706 454.907379,492.280182 
	C454.428528,493.326172 453.493713,494.407410 454.407959,496.459778 
	C457.319733,492.735748 461.709625,490.549652 462.385529,486.053894 
	C463.007111,481.919403 464.808228,478.554871 466.635834,474.998535 
	C469.983002,468.485291 472.505280,461.593994 475.356720,454.862976 
	C477.547577,449.691284 475.434570,444.874023 476.319824,439.902924 
	C478.295319,428.809570 481.627380,417.854187 480.665985,406.371124 
	C479.902618,397.253601 479.331268,388.114471 478.308228,379.026154 
	C477.621155,372.922668 477.932648,366.662231 476.049805,360.731567 
	C470.708710,343.908020 465.265472,327.116852 459.849792,310.316986 
	C459.347321,308.758331 458.755035,307.228607 458.204498,305.685425 
	C457.630615,305.886749 457.056732,306.088043 456.482849,306.289368 
	C458.747681,324.671692 463.751251,342.279114 472.736206,359.216309 
	C461.540222,369.772858 450.476227,380.584686 438.267975,390.139191 
	C432.109894,394.958649 425.526459,399.292084 420.975586,405.878296 
	C416.132477,412.887543 409.914734,418.247894 402.110840,421.785431 
	C398.707611,423.328125 396.163177,425.785156 394.268127,429.166687 
	C391.994019,433.224609 388.623596,436.281433 384.326721,437.718231 
	C382.792816,436.440918 382.852783,435.223724 382.799835,434.079010 
	C381.745483,411.289948 380.743713,388.498322 379.649872,365.711151 
	C379.011261,352.407440 379.189423,338.973724 377.315765,325.838776 
	C373.295105,297.652710 366.335999,270.016022 359.651337,242.355042 
	C358.704224,238.435883 356.570465,235.697906 352.091827,234.799438 
	C346.561615,233.689987 341.169739,231.870392 335.741333,230.278488 
	C324.790070,227.066956 324.796539,227.044876 314.448639,228.945374 
	C325.597168,230.974243 335.907654,232.818192 346.200897,234.753799 
	C348.050171,235.101517 350.440460,234.833633 351.240967,237.161285 
	C355.024567,248.163193 358.711731,259.198273 362.687225,270.990692 
M409.732361,259.675995 
	C426.663391,272.671875 440.061737,289.051147 453.379944,306.774719 
	C454.192169,302.543335 456.276337,299.153473 453.794495,296.903809 
	C447.638062,291.323303 444.534912,283.500671 438.758514,277.695038 
	C416.928253,255.754105 389.591980,244.613708 360.134766,237.634354 
	C376.638641,244.442749 393.890503,249.602020 409.732361,259.675995 
M163.655731,303.304382 
	C164.588669,301.422729 165.521606,299.541046 166.454544,297.659393 
	C140.257858,324.071716 129.039017,355.800537 132.579590,394.109253 
	C133.433685,384.488586 134.553680,376.285339 136.317444,368.178345 
	C141.339447,345.095367 153.013565,324.811462 163.655731,303.304382 
M303.190338,228.443314 
	C298.534424,228.265152 293.982239,225.112122 289.210266,227.855637 
	C294.310852,230.400040 299.804199,228.082581 305.047211,229.186203 
	C304.624237,228.973541 304.201263,228.760880 303.190338,228.443314 
M133.644485,418.352448 
	C134.047073,419.384247 133.665161,420.845490 135.397095,421.728699 
	C135.842743,417.226349 135.387894,413.325928 133.968567,409.498779 
	C132.960373,412.172607 133.355103,414.893005 133.644485,418.352448 
M134.369171,428.034485 
	C134.857376,432.457275 135.345581,436.880096 135.833786,441.302887 
	C136.152527,441.256653 136.471283,441.210449 136.790024,441.164215 
	C136.298065,435.954895 135.806107,430.745605 135.314148,425.536316 
	C135.090836,425.539581 134.867508,425.542847 134.644196,425.546112 
	C134.547485,426.141022 134.450775,426.735931 134.369171,428.034485 
z"/>
<path fill="#000000" opacity="1.000000" stroke="none" 
	d="
M509.912720,430.769287 
	C507.493103,404.551605 508.843506,379.178741 516.569824,354.250519 
	C525.354553,325.907410 538.127441,299.804474 557.811096,277.367462 
	C585.199402,246.148132 619.284912,225.792923 659.158142,214.695984 
	C676.265686,209.934845 693.796021,207.006195 711.362061,207.259857 
	C745.069031,207.746613 777.335938,215.224152 807.087585,231.882996 
	C861.675720,262.448517 895.708862,308.300720 909.264404,369.307404 
	C917.007141,404.153442 913.948303,438.411987 903.065063,472.195953 
	C899.902344,482.013824 897.078674,491.935608 893.602722,501.659973 
	C891.165344,508.478790 887.324585,514.021790 881.376160,518.231140 
	C868.311340,527.476257 857.379028,538.973694 846.632141,550.760986 
	C834.676697,563.873840 820.594727,574.308167 805.206360,583.374634 
	C794.200867,589.858765 783.045898,596.127686 772.106079,602.744507 
	C764.674927,607.239136 755.914429,607.503479 747.648438,609.222778 
	C736.868713,611.464844 725.892273,612.115784 714.927917,612.819397 
	C710.502136,613.103394 706.336182,611.818665 702.128174,610.927002 
	C679.675293,606.169556 657.279480,601.139526 634.806213,596.482849 
	C624.075073,594.259216 615.048767,588.562988 606.058289,582.957092 
	C559.307556,553.806152 528.410217,512.794739 514.554626,459.266327 
	C512.175171,450.073761 511.049957,440.646759 509.912720,430.769287 
M880.805542,415.202545 
	C880.946838,401.758423 879.760620,388.523956 875.022034,375.262024 
	C873.312927,376.679596 872.118469,377.567566 871.040588,378.579712 
	C854.166016,394.424683 837.314087,410.307770 819.123352,424.653900 
	C802.126770,438.058258 785.193848,451.510773 768.773621,465.641022 
	C756.537964,476.170258 743.395752,485.676300 728.434021,492.217712 
	C721.421326,495.283691 721.387390,495.206055 719.834229,502.345001 
	C695.135742,490.801941 670.554260,479.313538 645.470825,467.590546 
	C645.386902,469.342499 645.243835,470.166412 645.328857,470.966064 
	C645.574280,473.276062 645.911499,475.576263 646.212769,477.880280 
	C650.110352,507.681335 658.895508,536.311829 667.286621,565.019165 
	C670.564636,576.233948 678.701416,582.120422 690.192139,583.790344 
	C702.004028,585.506958 713.770447,584.579895 725.562378,583.757874 
	C742.759094,582.559082 759.440796,579.110962 775.700867,573.283630 
	C796.574280,565.802979 812.829712,551.397217 829.791565,538.007507 
	C829.925598,537.901672 829.750244,537.403809 829.695679,536.848083 
	C828.207886,536.388794 826.659790,535.841736 825.076111,535.432678 
	C806.718750,530.690125 788.339111,526.032532 770.000488,521.218872 
	C757.457031,517.926392 744.653564,515.482727 732.658386,510.334442 
	C729.442566,508.954224 725.926697,507.804443 723.604492,503.945557 
	C726.596680,503.262085 728.779846,503.786255 731.015320,504.372040 
	C749.848328,509.307190 768.682129,514.240234 787.537415,519.089172 
	C802.035950,522.817749 816.514038,526.614014 831.513550,527.964844 
	C836.234253,528.390015 839.370117,527.095825 841.679993,522.828796 
	C855.575500,497.158752 872.178894,472.973846 879.575989,443.929077 
	C882.043518,434.240570 881.992126,425.470428 880.805542,415.202545 
M777.969360,411.282227 
	C777.653137,406.973480 777.405823,402.663544 777.006165,398.356171 
	C776.409180,391.922516 774.733887,385.416595 776.101562,378.989899 
	C776.876587,375.347900 775.598083,373.619537 772.970581,371.559692 
	C754.896545,357.390228 734.729431,346.796631 714.256714,336.685486 
	C711.953552,335.548035 709.887024,335.514374 707.594055,336.493561 
	C688.140076,344.801178 668.817627,353.304504 651.501465,365.771271 
	C646.890686,369.090759 643.902954,372.788574 642.945984,378.483826 
	C641.955566,384.378235 640.630737,390.206818 640.192566,396.193970 
	C638.944092,413.256012 641.334473,430.043182 643.961548,446.808716 
	C644.511292,450.317047 644.017212,454.371124 647.854492,456.561188 
	C666.209961,467.037170 684.426331,477.763062 703.941528,486.058136 
	C709.632202,488.476929 714.716553,488.519989 719.921509,484.937195 
	C723.476318,482.490234 727.387390,480.565796 731.098877,478.340515 
	C745.091736,469.950623 758.861694,461.210938 772.456177,452.186462 
	C777.606506,448.767517 780.419739,444.623932 779.757141,438.100708 
	C778.883850,429.502930 778.596313,420.845642 777.969360,411.282227 
M631.547913,387.282776 
	C632.091309,383.881134 632.634766,380.479492 633.219910,376.816650 
	C632.448608,377.068054 631.928223,377.112610 631.563843,377.374359 
	C602.735229,398.083038 574.278992,419.230774 550.771851,446.189148 
	C549.670105,447.452606 548.252686,448.682953 548.304077,450.407959 
	C548.605774,460.525787 545.631409,471.062805 552.256897,480.403473 
	C553.877747,482.688629 554.893372,485.403656 556.183105,487.923157 
	C564.086060,503.360931 572.142090,518.516479 585.890991,530.026306 
	C598.662415,540.717834 611.490173,551.314880 624.767578,561.357666 
	C633.303833,567.814392 642.606506,573.024902 652.742615,576.547241 
	C655.636108,577.552673 659.271301,579.158081 661.750793,576.691956 
	C664.017395,574.437561 661.561523,571.366150 660.854309,568.775513 
	C648.293762,522.763855 633.807800,477.161743 631.226196,429.040558 
	C630.495300,415.417023 629.996094,401.781921 631.547913,387.282776 
M772.176575,320.107941 
	C769.849121,298.342926 765.179138,277.166901 757.715698,256.512756 
	C754.854736,248.595490 750.424988,244.351807 742.242310,243.320602 
	C732.849243,242.136871 723.401550,241.444275 714.105042,239.353851 
	C705.431396,237.403473 696.505432,237.655960 687.730164,238.684052 
	C661.031433,241.811981 637.028931,252.168137 614.824707,266.915619 
	C607.540771,271.753387 600.557556,277.092743 594.728699,284.261353 
	C595.923950,284.828064 596.618408,285.288940 597.381836,285.499603 
	C609.737183,288.908691 622.060242,292.445496 634.471436,295.639343 
	C665.999695,303.752686 696.798462,313.750427 725.252808,329.967712 
	C742.715515,339.920349 761.444397,347.895691 775.997681,362.409821 
	C776.255676,362.667114 776.881104,362.555939 777.925598,362.695648 
	C776.047180,348.604645 774.206482,334.796661 772.176575,320.107941 
M854.973755,310.578552 
	C853.283752,308.741241 851.565918,306.928711 849.908325,305.062683 
	C837.843628,291.480560 825.447571,278.227753 811.305298,266.745972 
	C804.120056,260.912445 796.540833,255.933411 786.789612,255.577499 
	C779.534973,255.312744 772.658203,252.703751 763.838806,250.943024 
	C781.192078,314.074097 790.329346,377.165192 787.282104,441.837708 
	C791.989746,441.563049 793.745972,439.399078 795.166199,436.915405 
	C798.246155,431.529358 802.457520,427.560303 808.307678,425.206512 
	C813.041992,423.301636 816.833862,419.969696 819.686951,415.746643 
	C824.802307,408.175018 831.607727,402.412231 838.778564,396.903992 
	C849.211609,388.889923 859.300842,380.449219 868.841736,371.361359 
	C872.471619,367.903870 873.701477,364.571930 871.686951,359.482422 
	C867.226318,348.212921 863.505432,336.697052 861.470215,324.631439 
	C860.666809,319.868591 858.933350,314.954590 854.973755,310.578552 
M542.143066,429.321655 
	C543.675110,433.052155 543.439453,437.421204 546.161438,441.175964 
	C557.859314,430.239838 570.623108,421.018494 580.286377,408.499237 
	C585.514404,401.726074 591.568420,395.839081 598.981140,391.411163 
	C606.614258,386.851624 612.938843,380.635773 619.590149,374.834961 
	C621.466125,373.198853 623.413940,371.585724 625.532166,370.295898 
	C648.120911,356.541168 669.791687,341.148315 694.702148,331.515442 
	C696.892395,330.668457 699.210999,329.610138 700.932617,327.026123 
	C698.476440,326.244171 696.447937,325.579956 694.408325,324.951843 
	C662.435791,315.105225 630.361389,305.571655 598.555603,295.213165 
	C590.126221,292.467865 584.027649,292.400208 579.434570,300.710266 
	C576.311096,306.361511 569.447388,308.671906 566.412537,314.169189 
	C557.554565,330.214172 549.479065,346.643524 543.857056,364.192108 
	C541.870972,370.391541 540.758728,376.339355 543.175171,382.640991 
	C545.010864,387.428101 544.564331,392.200226 543.571594,397.288757 
	C541.569641,407.550629 540.105774,417.976837 542.143066,429.321655 
z"/>
<path fill="#000000" opacity="1.000000" stroke="none" 
	d="
M773.992310,737.579834 
	C774.601440,748.124268 771.298950,753.782227 763.907532,755.419800 
	C756.933411,756.964966 750.648010,753.032471 748.786133,745.958984 
	C746.576599,737.565002 750.369629,729.329102 757.446960,727.153320 
	C764.493774,724.986877 770.797607,728.361328 773.470032,735.736450 
	C773.639282,736.203552 773.762756,736.687134 773.992310,737.579834 
M756.145447,732.705933 
	C753.755310,735.125916 753.199341,738.151184 753.220886,741.394165 
	C753.262146,747.608215 756.687378,751.857117 761.541565,751.657898 
	C766.024109,751.473999 769.835571,746.300842 769.456787,740.734375 
	C769.356873,739.265808 768.992554,737.771362 768.492126,736.381592 
	C766.524048,730.916687 762.013245,729.356018 756.145447,732.705933 
z"/>
<path fill="#000000" opacity="1.000000" stroke="none" 
	d="
M804.276428,726.698120 
	C810.716003,726.241394 815.171997,728.672852 817.225220,734.350525 
	C819.492981,740.621338 819.213562,746.901794 814.508545,752.068237 
	C810.966797,755.957336 806.251892,756.769348 801.259705,755.137207 
	C795.453613,753.239075 792.302856,747.538574 792.691040,739.915894 
	C793.058594,732.697876 796.561890,728.552979 804.276428,726.698120 
M799.027466,734.663818 
	C798.655396,735.582764 798.200012,736.477600 797.925171,737.424805 
	C796.502197,742.329529 798.134583,748.156311 801.611267,750.440063 
	C804.426270,752.289062 807.268738,752.112000 809.936829,750.127930 
	C813.231079,747.678223 814.577515,741.645081 812.990356,736.871094 
	C810.635010,729.786316 804.684753,728.533081 799.027466,734.663818 
z"/>
<path fill="#000000" opacity="1.000000" stroke="none" 
	d="
M843.221924,750.664673 
	C843.178650,752.778931 842.533875,754.123291 840.866272,754.535889 
	C835.250122,755.925781 829.577759,756.463257 824.638489,752.744080 
	C819.678223,749.008972 818.867249,743.520081 819.978638,737.885437 
	C821.100342,732.198303 824.769226,728.518799 830.528442,727.179382 
	C833.643494,726.454834 836.787964,726.385620 839.878601,727.294800 
	C840.998779,727.624329 842.129883,728.188721 841.792603,729.728882 
	C841.477661,731.166626 840.407043,731.413147 839.126465,731.329163 
	C837.306763,731.209778 835.472534,730.961121 833.664490,731.077454 
	C828.056152,731.438110 824.670593,735.100891 824.433350,740.864197 
	C824.202515,746.470520 827.955139,750.979675 833.437622,751.538879 
	C835.599915,751.759460 838.037659,751.991760 838.530762,749.005615 
	C838.923401,746.628174 838.943054,744.249207 835.534302,743.896912 
	C834.336670,743.773071 833.221863,743.094666 833.378906,741.637146 
	C833.570374,739.859558 835.060669,739.901306 836.390381,739.751770 
	C842.070618,739.112854 843.198181,740.079407 843.254395,745.720642 
	C843.269287,747.215210 843.243286,748.710205 843.221924,750.664673 
z"/>
<path fill="#000000" opacity="1.000000" stroke="none" 
	d="
M846.673157,737.041138 
	C846.673462,736.216492 846.610901,735.869263 846.683105,735.552856 
	C847.333557,732.702698 844.941895,728.945312 848.923401,727.108032 
	C852.556030,725.431763 860.344910,726.936157 862.522949,729.693726 
	C865.270081,733.171692 864.967163,736.798889 862.386780,740.236450 
	C861.274719,741.717773 861.800354,742.944641 862.361694,744.396912 
	C863.258545,746.717346 863.987427,749.108948 864.668518,751.504211 
	C865.087769,752.978516 865.367920,754.642029 863.258667,755.078308 
	C861.426453,755.457214 860.528076,754.218689 860.010986,752.675476 
	C859.273193,750.473816 858.757446,748.176514 857.806274,746.074158 
	C857.003845,744.300903 855.317627,743.266785 853.307129,743.628967 
	C851.069580,744.032043 851.652771,746.078125 851.246216,747.625549 
	C850.584778,750.143127 853.200684,754.890259 848.675110,754.699280 
	C845.012146,754.544678 847.012512,750.049500 846.749451,747.512634 
	C846.407898,744.218811 846.670349,740.862366 846.673157,737.041138 
M856.400513,731.111145 
	C854.484375,730.530273 852.135803,729.644409 851.568665,732.434692 
	C851.115417,734.664612 850.115662,737.699707 852.626709,739.228271 
	C854.779785,740.538940 857.264038,739.440979 858.735291,737.448669 
	C860.576904,734.955078 859.778503,732.819885 856.400513,731.111145 
z"/>
<path fill="#000000" opacity="1.000000" stroke="none" 
	d="
M879.556152,747.101929 
	C875.064331,746.393005 872.411560,747.811096 871.506104,752.082214 
	C871.094971,754.021606 869.933472,755.736633 867.701050,755.042236 
	C864.894470,754.169067 866.483215,752.125977 867.026550,750.525085 
	C869.270081,743.914978 871.544922,737.315491 873.844482,730.724609 
	C874.502319,728.839233 875.091431,726.835632 877.731750,726.880615 
	C880.326294,726.924927 880.900452,728.854736 881.569519,730.782898 
	C883.748535,737.062744 886.060547,743.299011 888.094421,749.625061 
	C888.627014,751.281494 890.526184,753.701965 887.913818,754.870361 
	C885.082886,756.136353 884.400208,753.415344 883.598694,751.403320 
	C882.872864,749.581482 882.471497,747.455444 879.556152,747.101929 
M879.370605,738.208130 
	C878.862549,737.029907 878.354492,735.851746 877.560547,734.010620 
	C876.588684,737.131775 875.162292,739.342285 875.067139,742.309387 
	C878.020935,742.762451 881.189514,744.025696 879.370605,738.208130 
z"/>
<path fill="#000000" opacity="1.000000" stroke="none" 
	d="
M931.397339,727.390381 
	C935.716125,735.317261 937.343933,743.897522 940.677795,751.849976 
	C941.209473,753.118408 941.371094,754.597900 939.545593,755.061951 
	C937.504272,755.580811 936.488281,754.300781 935.836487,752.598755 
	C934.770020,749.813782 934.075378,746.876892 929.998962,746.920227 
	C926.825867,746.954041 924.533875,747.529541 923.640442,751.014343 
	C923.026306,753.409851 922.226746,756.057922 918.620483,754.768372 
	C917.394043,752.845032 918.686646,751.216736 919.232666,749.586609 
	C921.343018,743.287170 923.613098,737.041077 925.713135,730.738281 
	C926.605225,728.060608 927.807861,726.161011 931.397339,727.390381 
M927.568848,742.479980 
	C929.025940,742.771973 930.483398,743.067505 931.944214,742.080200 
	C932.159607,739.314148 930.473633,737.162354 929.385437,734.037903 
	C928.433838,737.117798 926.886047,739.293518 927.568848,742.479980 
z"/>
<path fill="#000000" opacity="1.000000" stroke="none" 
	d="
M950.968628,743.077148 
	C949.298401,742.240295 947.864746,741.708740 946.638855,740.872681 
	C942.652954,738.154175 941.799438,733.673706 944.457642,730.021240 
	C946.742859,726.881042 954.530334,725.350403 957.280273,727.475098 
	C958.006897,728.036560 958.398804,728.667114 958.167419,729.595032 
	C957.941589,730.500671 957.339172,731.149170 956.444092,731.112610 
	C955.129700,731.059082 953.827087,730.613464 952.516174,730.596802 
	C950.319580,730.568909 948.537231,731.556335 947.936890,733.734558 
	C947.396240,735.696594 948.886230,736.777405 950.384094,737.615051 
	C951.543945,738.263733 952.780396,738.775513 953.982178,739.349548 
	C957.944153,741.242004 960.561707,744.119812 959.782349,748.765503 
	C958.947998,753.739258 955.111084,755.321106 950.670349,755.764465 
	C949.379944,755.893372 948.010620,755.657593 946.730225,755.361084 
	C944.850586,754.925842 942.117249,754.706726 942.842529,751.968018 
	C943.543701,749.320312 945.853088,750.946655 947.490051,751.295227 
	C950.264526,751.886108 953.066895,752.060547 954.426147,749.076172 
	C955.766602,746.133118 953.751526,744.442871 950.968628,743.077148 
z"/>
<path fill="#000000" opacity="1.000000" stroke="none" 
	d="
M791.717651,731.105225 
	C787.153259,730.738098 785.706482,732.647461 785.925354,736.716431 
	C786.184509,741.533203 786.023621,746.377197 785.919128,751.206665 
	C785.880432,752.993408 785.906677,755.223755 783.203247,755.064087 
	C780.876770,754.926697 780.969604,752.899963 780.943970,751.274109 
	C780.862732,746.110413 780.798340,740.943237 780.905396,735.781067 
	C780.968201,732.753540 780.113037,730.995239 776.691467,731.183838 
	C775.091614,731.272034 772.943604,731.291382 773.085205,728.876343 
	C773.222107,726.541809 775.360535,726.830566 776.957275,726.812622 
	C781.621216,726.759949 786.286499,726.798157 790.950989,726.834351 
	C792.160278,726.843750 793.357971,727.113464 793.764038,728.446960 
	C794.187927,729.839050 793.396973,730.627563 791.717651,731.105225 
z"/>
<path fill="#000000" opacity="1.000000" stroke="none" 
	d="
M454.338135,747.222412 
	C454.123932,750.110107 454.894653,752.777344 453.404480,754.960144 
	C451.424042,754.466125 451.430481,753.400452 451.437164,752.421387 
	C451.489471,744.780762 451.616943,737.140259 451.618042,729.499756 
	C451.618378,727.125549 452.428986,725.690857 454.928406,725.478760 
	C456.414093,725.352722 457.913147,724.921936 459.372955,725.039673 
	C463.714783,725.389954 468.117798,725.804016 470.325684,730.492126 
	C472.464508,735.033630 469.621948,738.002014 466.656128,741.063599 
	C469.553131,745.269592 470.907013,749.855103 471.331177,755.296448 
	C467.781281,754.296448 467.898987,751.760254 467.465820,749.640686 
	C466.512421,744.975342 463.956787,742.381714 458.962067,742.190186 
	C455.511383,742.057861 453.950836,743.301331 454.338135,747.222412 
M467.271973,731.310059 
	C464.631409,727.608154 460.740417,728.018677 456.951569,728.240234 
	C454.820801,728.364868 454.157867,729.927368 454.388153,731.726990 
	C454.719879,734.319458 452.872498,737.677368 456.160217,739.316162 
	C461.113007,741.784851 467.458679,737.578003 467.271973,731.310059 
z"/>
<path fill="#000000" opacity="1.000000" stroke="none" 
	d="
M891.743896,739.016296 
	C891.741760,738.189392 891.740723,737.857178 891.741211,737.525024 
	C891.756714,726.501282 893.934265,724.726135 904.802185,726.807922 
	C906.013062,727.039856 907.158081,727.268677 907.265930,728.745483 
	C907.393921,730.497864 906.225403,731.036987 904.747620,731.111816 
	C903.255615,731.187256 901.757019,731.252441 900.265869,731.198120 
	C897.610901,731.101440 896.336060,732.121277 896.314148,734.971375 
	C896.292358,737.808960 897.517639,738.666809 900.182068,738.860352 
	C902.368042,739.019104 906.261719,737.476196 906.195496,741.036865 
	C906.133118,744.393860 902.273926,743.037659 900.067871,743.098816 
	C896.348450,743.201904 896.500549,745.513062 896.276123,748.152893 
	C896.075317,750.515869 897.808777,754.702637 894.224915,754.742004 
	C890.048828,754.787964 892.138733,750.413879 891.830200,747.971313 
	C891.479187,745.191956 891.746826,742.334534 891.743896,739.016296 
z"/>
<path fill="#000000" opacity="1.000000" stroke="none" 
	d="
M732.479248,727.198608 
	C736.384033,726.952332 739.866577,726.863831 743.349365,726.848328 
	C744.720703,726.842224 746.137878,727.027405 746.222961,728.843323 
	C746.308228,730.663879 744.931213,730.961609 743.549377,731.064636 
	C742.226318,731.163330 740.890747,731.217224 739.566772,731.157104 
	C736.775330,731.030273 735.224670,731.896362 735.291138,735.098633 
	C735.351379,737.999817 736.734985,738.655945 739.297729,738.892578 
	C741.449036,739.091125 745.285767,737.418945 745.226929,741.136597 
	C745.176697,744.314941 741.522156,743.083496 739.466675,743.046753 
	C735.103455,742.968689 735.451294,745.739563 735.251404,748.690979 
	C735.103210,750.879639 736.691772,754.766174 733.239502,754.802856 
	C729.208130,754.845825 731.000671,750.750061 730.888184,748.456360 
	C730.628174,743.154358 730.771973,737.829956 730.840027,732.515808 
	C730.862732,730.744629 730.439209,728.804443 732.479248,727.198608 
z"/>
<path fill="#000000" opacity="1.000000" stroke="none" 
	d="
M419.713501,754.034729 
	C418.802368,750.717773 419.103027,747.733276 419.313019,744.754761 
	C419.422363,743.203552 419.551666,741.360779 417.560059,741.251526 
	C413.426636,741.024902 409.254059,740.961548 405.132080,741.278992 
	C402.569855,741.476379 402.604370,743.888733 402.425293,745.921082 
	C402.172577,748.789429 403.139618,751.820801 401.483917,754.683716 
	C399.013000,751.369995 398.909698,729.202576 401.412506,725.615540 
	C403.360596,728.252258 402.273071,731.131042 402.341705,733.751526 
	C402.417755,736.656860 403.393524,738.166504 406.427155,737.964844 
	C406.922943,737.931824 407.423523,737.968323 407.921844,737.975769 
	C417.630249,738.120544 417.626587,738.119995 419.392578,728.762756 
	C419.573425,727.804565 419.622253,726.747009 420.738159,726.278503 
	C422.376648,726.518433 422.256104,727.866638 422.263580,728.954041 
	C422.314911,736.429382 422.353973,743.905823 422.251648,751.380005 
	C422.233429,752.709778 422.984802,755.171936 419.713501,754.034729 
z"/>
<path fill="#000000" opacity="1.000000" stroke="none" 
	d="
M542.320740,726.873535 
	C539.881836,729.059753 537.119873,728.206787 534.561890,728.161499 
	C530.824402,728.095398 529.223572,729.245239 529.214539,733.298279 
	C529.205750,737.277161 530.976501,738.097656 534.360352,738.025452 
	C536.882629,737.971680 539.612244,737.449890 542.112732,739.365845 
	C539.954468,742.086609 537.245422,741.221802 534.996277,741.056091 
	C530.093323,740.694824 529.277771,743.099182 529.229248,747.360779 
	C529.180603,751.637390 530.767822,752.843567 534.770752,752.704407 
	C537.724609,752.601868 540.964905,751.735840 543.707703,755.295227 
	C538.291748,755.295227 532.871704,755.408936 527.463013,755.210693 
	C526.201416,755.164490 526.047974,753.512817 526.051636,752.336304 
	C526.075317,744.697449 526.129883,737.058838 526.177551,729.420105 
	C526.193848,726.800598 527.359924,725.336365 530.135986,725.600220 
	C534.207214,725.987244 538.394043,724.730286 542.320740,726.873535 
z"/>
<path fill="#000000" opacity="1.000000" stroke="none" 
	d="
M683.871094,726.094910 
	C688.955017,735.276550 692.235046,744.900635 696.319031,755.129150 
	C692.053772,754.539185 691.845215,751.879333 691.317139,749.904480 
	C690.126099,745.450012 686.959045,745.213196 683.206848,745.198364 
	C679.586304,745.184082 676.702820,745.527832 675.604126,749.773071 
	C675.111755,751.675476 674.769470,754.092346 672.384216,754.908630 
	C670.892029,754.399231 671.081787,753.342346 671.454834,752.416748 
	C674.752380,744.236572 678.090881,736.072876 681.433472,727.910889 
	C681.818542,726.970581 682.339417,726.110901 683.871094,726.094910 
M687.420471,741.117188 
	C686.551697,738.009888 685.500916,734.995117 683.239624,732.009277 
	C681.268127,735.503235 679.681458,738.435547 679.667297,742.568176 
	C682.416870,741.702209 684.872742,743.014893 687.420471,741.117188 
z"/>
<path fill="#000000" opacity="1.000000" stroke="none" 
	d="
M553.124878,736.005310 
	C555.848450,738.096130 558.922974,738.436035 561.662659,739.605042 
	C565.224976,741.125244 567.438049,743.614929 567.160095,747.613892 
	C566.878052,751.672363 564.600342,754.459839 560.685974,755.540283 
	C556.055237,756.818420 551.675781,756.379211 547.851318,753.157349 
	C548.951904,750.796265 550.292847,751.631714 551.462036,752.066284 
	C554.198181,753.083252 557.000610,753.316162 559.788879,752.581421 
	C562.277039,751.925720 563.702881,750.178650 563.851257,747.530823 
	C563.989624,745.060730 562.843323,743.380310 560.576111,742.509216 
	C558.561951,741.735352 556.480896,741.134583 554.472290,740.347839 
	C550.780640,738.901855 548.141052,736.605469 548.572876,732.188538 
	C549.000366,727.816345 552.056702,725.936035 555.856689,725.133789 
	C559.233826,724.420776 562.657104,724.243530 565.504028,727.477661 
	C563.418884,729.547363 561.604675,727.884827 559.863770,727.599365 
	C557.025574,727.134094 554.462769,727.710754 552.633606,729.919006 
	C551.108521,731.760132 551.014160,733.881897 553.124878,736.005310 
z"/>
<path fill="#000000" opacity="1.000000" stroke="none" 
	d="
M604.282227,725.843018 
	C608.690735,724.304871 612.533691,724.071045 616.217957,727.207092 
	C614.123596,729.417603 612.460632,727.755920 610.815247,727.586243 
	C607.267517,727.220459 603.773865,727.615845 602.633057,731.506714 
	C601.426575,735.621521 604.722351,736.920898 607.859192,737.983093 
	C609.433411,738.516113 611.007385,739.055359 612.555908,739.657776 
	C616.195557,741.073669 618.329651,743.688782 618.057373,747.663635 
	C617.776733,751.760925 615.380371,754.333984 611.422058,755.437927 
	C606.771667,756.734924 602.565002,756.261841 598.291809,752.512878 
	C601.841064,751.027588 604.186646,753.158875 606.766357,753.013855 
	C610.235168,752.818787 613.732117,752.683350 614.606140,748.489319 
	C615.504517,744.178589 612.252380,742.729675 609.023254,741.494995 
	C607.939026,741.080383 606.799500,740.812622 605.704346,740.424011 
	C602.393799,739.249329 599.657898,737.448364 599.288086,733.584290 
	C598.942505,729.973938 600.904724,727.637878 604.282227,725.843018 
z"/>
<path fill="#000000" opacity="1.000000" stroke="none" 
	d="
M476.689453,738.335144 
	C477.987823,730.833679 482.353638,726.833130 489.215149,725.337463 
	C493.238129,724.460510 497.096252,724.473877 501.001007,727.037231 
	C498.659119,729.394226 496.942810,727.980286 495.266876,727.757507 
	C489.915344,727.046326 485.215210,728.396667 482.021454,732.856873 
	C479.018127,737.051147 478.468903,741.729614 480.914246,746.522583 
	C483.435852,751.465088 487.727203,753.083740 492.929382,752.893799 
	C495.353699,752.805298 497.770172,752.502625 500.446686,752.275208 
	C498.410736,755.832886 493.273224,756.972839 487.682678,755.471375 
	C480.138641,753.445190 476.701385,748.235718 476.689453,738.335144 
z"/>
<path fill="#000000" opacity="1.000000" stroke="none" 
	d="
M432.910858,728.668457 
	C429.642151,735.979370 430.808167,737.838318 438.089020,738.018799 
	C440.216888,738.071533 442.692352,737.323364 444.568573,739.844849 
	C442.027100,741.900452 439.285217,741.072876 436.800903,741.043335 
	C433.154633,741.000122 431.203735,741.958008 431.480927,746.163086 
	C431.715912,749.727173 430.850159,753.317444 436.549438,752.761292 
	C439.442688,752.478943 442.652924,751.886536 446.808563,754.390747 
	C440.488312,755.965088 435.484833,755.412537 430.543365,755.024658 
	C428.632751,754.874695 428.685944,752.927307 428.679260,751.449585 
	C428.646118,744.142944 428.698853,736.835876 428.649078,729.529480 
	C428.630829,726.856262 429.707123,725.471436 432.488159,725.642395 
	C436.531158,725.891113 440.655029,724.912170 444.716614,726.819641 
	C441.187195,729.066833 437.033844,727.654480 432.910858,728.668457 
z"/>
<path fill="#000000" opacity="1.000000" stroke="none" 
	d="
M660.357971,743.273804 
	C663.120667,737.251831 664.405396,730.907288 669.095032,726.189087 
	C666.433044,736.215637 662.655579,745.773438 657.454895,755.182190 
	C651.882996,746.079041 649.337280,736.033325 645.518066,725.955933 
	C648.962830,726.830139 648.955444,726.832703 650.889771,732.367798 
	C651.820374,735.030823 652.677429,737.726746 653.762878,740.326355 
	C654.896301,743.040710 655.123169,746.156982 657.355225,748.652527 
	C659.218506,747.407959 659.090698,745.130371 660.357971,743.273804 
z"/>
<path fill="#000000" opacity="1.000000" stroke="none" 
	d="
M388.063843,740.019409 
	C387.781433,745.298035 388.762085,750.231934 387.138031,755.154907 
	C384.088226,753.839111 384.792145,751.756348 384.763245,750.092834 
	C384.668213,744.621155 384.552185,739.137695 384.812408,733.676208 
	C385.002625,729.683838 383.777100,727.762939 379.518829,728.166443 
	C378.040955,728.306458 376.169464,728.879211 374.586487,726.286865 
	C382.484985,724.882263 389.941162,725.409119 397.578613,725.964844 
	C396.941925,728.892822 394.891541,728.329285 393.488525,728.178345 
	C388.866211,727.681274 387.613342,729.954834 388.010376,734.055786 
	C388.185455,735.864014 388.053406,737.701965 388.063843,740.019409 
z"/>
<path fill="#000000" opacity="1.000000" stroke="none" 
	d="
M715.396545,728.912231 
	C715.400085,739.275879 715.449585,749.222595 715.375732,759.168335 
	C715.363586,760.810852 716.136719,763.440674 713.500305,763.545715 
	C710.611572,763.660645 711.607910,761.029907 711.600220,759.394226 
	C711.551514,749.116699 711.552795,738.838745 711.590393,728.561096 
	C711.595459,727.180054 711.046692,725.204407 713.217224,724.997742 
	C715.877136,724.744568 715.255920,726.950500 715.396545,728.912231 
z"/>
<path fill="#000000" opacity="1.000000" stroke="none" 
	d="
M910.754761,749.809204 
	C910.746155,743.162292 910.711121,736.995605 910.751587,730.829346 
	C910.762390,729.189026 910.670105,727.169678 913.059692,727.159241 
	C915.525269,727.148499 915.274658,729.226440 915.287048,730.832703 
	C915.336914,737.332275 915.383057,743.833679 915.266479,750.331421 
	C915.234741,752.104126 916.147339,754.961914 913.050964,754.934448 
	C910.052490,754.907959 911.049683,752.100159 910.754761,749.809204 
z"/>
<path fill="#000000" opacity="1.000000" stroke="none" 
	d="
M629.652954,739.978882 
	C629.739319,735.501343 629.805786,731.514709 629.946533,727.530762 
	C629.960144,727.145386 630.434387,726.776245 630.799194,726.248596 
	C632.914368,727.214600 632.301636,729.065308 632.322327,730.542664 
	C632.403503,736.365662 632.499023,742.193787 632.335693,748.012878 
	C632.239258,751.447021 633.539551,752.831299 636.995361,752.752930 
	C639.814270,752.688904 642.816589,752.051392 646.888245,754.352783 
	C640.761047,755.958740 635.914795,755.431702 631.156311,755.121094 
	C629.228577,754.995239 629.549072,752.929016 629.559448,751.451599 
	C629.585205,747.791260 629.621582,744.130920 629.652954,739.978882 
z"/>
<path fill="#000000" opacity="1.000000" stroke="none" 
	d="
M506.680420,740.006470 
	C506.957703,735.166687 506.032501,730.718201 507.364899,726.304993 
	C509.949951,726.983887 509.319031,728.753906 509.345337,730.057983 
	C509.445862,735.041382 509.397034,740.027649 509.428650,745.012695 
	C509.476715,752.593201 509.485626,752.579956 516.865845,752.667542 
	C518.353516,752.685181 519.845276,752.795593 521.322449,752.970764 
	C521.739014,753.020203 522.110352,753.451477 522.536133,753.729675 
	C520.500610,755.210815 509.874298,756.045715 508.019348,754.971191 
	C506.598083,754.147827 506.714172,752.768494 506.699768,751.470520 
	C506.659241,747.815125 506.682556,744.159058 506.680420,740.006470 
z"/>
<path fill="#000000" opacity="1.000000" stroke="none" 
	d="
M622.344299,728.726562 
	C622.585999,727.409485 622.640930,726.326721 625.128906,726.207825 
	C625.423462,735.710571 625.593323,745.165771 624.281433,754.709473 
	C621.280273,752.585266 622.487793,749.658936 622.496582,746.966492 
	C622.506287,743.987000 622.387756,741.007202 622.356445,738.027222 
	C622.325134,735.048340 622.332520,732.069031 622.344299,728.726562 
z"/>
</svg>