<svg version="1.1" id="Layer_1" xmlns="http://www.w3.org/2000/svg" xmlns:xlink="http://www.w3.org/1999/xlink" x="0px" y="0px"
	 width="100%" viewBox="0 0 800 848" enable-background="new 0 0 800 848" xml:space="preserve">
<path fill="#000000" opacity="1.000000" stroke="none" 
	d="
M501.773254,57.063751 
	C566.882507,74.114998 624.204102,104.662140 673.289062,150.303452 
	C707.994080,182.573654 735.192200,220.464218 755.744751,263.001007 
	C775.602295,304.099365 788.040100,347.614532 792.792175,392.963715 
	C795.037537,414.391022 797.263794,435.924530 796.401306,457.681396 
	C795.131775,489.707184 791.023621,520.989014 778.185425,550.666016 
	C771.969727,565.034424 765.899963,579.460632 760.888428,594.310120 
	C759.180542,599.370483 757.545349,604.453918 756.813538,609.741821 
	C754.826172,624.102600 747.553833,635.933716 739.232361,647.318542 
	C730.292725,659.549133 722.921448,672.905640 712.888672,684.348511 
	C694.633789,705.169189 675.277954,724.889465 653.888672,742.529724 
	C651.647766,744.377869 649.307556,746.342407 645.635803,746.233459 
	C671.070190,718.632141 697.764099,692.220215 721.489685,663.075562 
	C709.823608,670.589844 699.037598,679.265991 688.638489,688.386292 
	C659.829285,713.652771 629.752380,737.373047 600.019775,761.515137 
	C589.160889,770.332275 578.349243,779.207947 567.548767,788.096619 
	C566.402710,789.039795 565.129700,790.083008 564.508423,791.366699 
	C561.400208,797.789307 555.453186,799.432922 549.303223,801.356934 
	C530.246155,807.318604 511.353363,813.764282 491.969452,818.695312 
	C456.137329,827.810547 419.839478,830.637390 382.977600,828.577087 
	C349.470459,826.704346 317.154205,819.325073 285.261475,809.401672 
	C235.834106,794.022278 192.028015,768.860352 153.091232,734.823975 
	C103.287430,691.288330 65.626740,639.086365 40.247314,578.061401 
	C26.607971,545.265503 18.274149,511.123718 14.550623,475.746368 
	C12.961904,460.651917 11.231787,445.620026 11.706553,430.440277 
	C13.686513,367.135010 28.985973,307.407074 59.806602,251.849396 
	C73.342735,227.448990 88.849373,204.387100 106.935112,183.151031 
	C138.805115,145.729599 176.481888,115.371460 219.529190,91.650551 
	C251.716751,73.913818 285.888641,61.437569 321.763885,53.812904 
	C343.085632,49.281334 364.667633,46.569805 386.535797,45.471741 
	C425.467377,43.516876 463.601715,48.111824 501.773254,57.063751 
M295.993225,714.651245 
	C301.363129,733.414246 306.733032,752.177246 312.130798,771.037537 
	C308.993011,771.716003 307.283966,770.419556 305.477844,769.730408 
	C288.672424,763.318909 272.053589,756.377075 255.069214,750.487122 
	C236.594330,744.080261 219.662628,735.408691 204.933456,722.356384 
	C183.986008,703.793762 162.683777,685.631958 141.625092,667.193848 
	C138.636749,664.577393 135.909241,661.565247 133.501648,658.400940 
	C125.012604,647.243896 117.780876,635.269897 110.942451,623.041809 
	C99.549599,602.669556 89.971100,581.374390 79.084984,560.746277 
	C77.729462,558.177673 76.601837,555.379761 73.592834,553.627075 
	C69.416016,563.447083 70.227318,572.732544 74.078720,581.960388 
	C80.708214,597.844482 89.089394,612.757874 98.535828,627.141968 
	C124.550926,666.755188 157.209610,699.832031 195.507919,727.638794 
	C224.245834,748.504211 254.370575,766.862915 287.917389,778.722656 
	C337.547150,796.268127 388.759064,801.039307 441.060516,795.793030 
	C468.693390,793.021240 495.840454,787.771729 521.963318,778.566162 
	C564.173950,763.691345 603.372925,742.866577 638.902954,715.468811 
	C646.134277,709.892700 654.041077,704.880676 659.308044,697.206665 
	C674.208496,675.496704 688.132812,653.160583 701.228516,630.313721 
	C701.902344,629.138184 703.301697,628.006714 701.863403,625.648743 
	C696.104980,633.177002 686.828796,636.364929 681.414734,643.851624 
	C674.978333,652.752014 668.975464,661.979370 663.107178,671.268738 
	C661.410400,673.954590 659.802917,674.898071 656.694519,674.430176 
	C644.692505,672.623413 632.695190,670.656799 620.625854,669.456787 
	C603.650940,667.769043 587.048767,664.710938 570.941711,658.977417 
	C534.392334,645.967224 497.817535,633.028076 461.214020,620.171204 
	C451.006805,616.585876 440.727661,613.164612 430.100037,610.975891 
	C428.549408,610.656494 426.779388,609.855896 425.642090,611.851135 
	C423.729126,615.207153 425.853943,620.384583 429.675568,621.805115 
	C445.442200,627.665955 461.189117,633.580200 476.968781,639.405762 
	C496.807281,646.729736 516.312256,655.254456 536.603027,660.990540 
	C571.672852,670.904480 607.093811,679.639526 642.603699,687.932617 
	C644.362244,688.343323 646.744934,688.029602 647.671143,690.898926 
	C646.482178,691.881714 645.248840,692.944397 643.971008,693.950684 
	C630.231934,704.770203 616.442444,715.526306 602.750366,726.405029 
	C572.273010,750.620178 538.082825,767.092407 500.272430,776.317383 
	C474.933350,782.499512 449.199371,785.734009 423.234802,786.861389 
	C403.113190,787.735046 382.905182,788.648865 362.818573,786.212524 
	C343.058655,783.815918 327.267365,775.180603 319.079651,755.962646 
	C316.277008,749.384338 313.830139,742.636597 311.557953,735.853210 
	C302.085236,707.573303 294.816498,678.677795 287.918335,649.691101 
	C280.866730,620.059326 274.560272,590.271057 270.288300,560.090698 
	C269.720276,556.077759 269.001923,551.985291 270.501831,547.320801 
	C321.400574,571.557617 371.132751,597.397644 422.500793,619.442261 
	C424.238159,616.946777 423.263214,615.226135 422.940460,613.468872 
	C421.507538,605.666687 422.139801,604.501709 429.446808,601.539124 
	C457.136780,590.312561 482.634430,575.452637 505.498474,556.115295 
	C523.172485,541.167480 540.750366,526.085938 558.857300,511.674866 
	C588.422119,488.144653 620.394043,467.683990 647.654053,441.198853 
	C669.032532,420.428009 692.846802,402.293945 713.582031,380.794464 
	C717.853943,376.365173 722.524109,372.308960 727.142090,368.229431 
	C729.329956,366.296631 731.501343,364.132233 735.901123,363.632690 
	C737.579285,419.141022 732.319397,474.416840 735.430908,529.624634 
	C737.836609,529.645691 737.510254,526.843506 740.522095,527.380493 
	C721.880493,561.288208 706.256287,596.286194 690.669678,631.353760 
	C697.827515,624.365051 704.213196,616.927246 710.814758,609.686218 
	C713.071350,607.211060 714.110168,604.487915 714.745850,601.289185 
	C715.513733,597.424622 715.126648,593.294800 717.418823,589.741272 
	C724.494263,578.772217 729.820312,566.905701 734.734680,554.874756 
	C739.064697,544.274353 742.814880,533.454590 744.090820,521.989624 
	C742.264160,521.415039 741.994446,524.172424 740.155762,522.919067 
	C740.120239,522.436768 739.902283,521.751343 740.050415,521.157227 
	C743.638550,506.771118 745.719971,492.100311 748.190552,477.509766 
	C749.902527,467.399231 752.461975,457.477844 751.255127,446.889404 
	C749.182922,428.708527 748.416626,410.382172 746.550293,392.173492 
	C744.711304,374.232086 744.269531,356.268860 738.023560,338.727081 
	C726.691895,306.902039 717.142456,274.442230 706.862488,242.243118 
	C706.249817,240.324097 705.788879,238.349518 704.055542,236.237549 
	C702.414490,246.795456 700.742004,256.323822 704.222473,266.361725 
	C708.846741,279.698456 712.922424,293.329041 715.830750,307.129028 
	C718.979004,322.067200 728.026245,334.158569 732.713318,348.928192 
	C732.715149,348.926178 731.988770,349.835297 731.151123,350.626495 
	C708.020996,372.474182 685.137878,394.599640 659.710571,413.854828 
	C650.550110,420.791687 640.847412,427.277191 634.173950,436.829010 
	C622.463135,453.590759 607.974548,466.797516 589.142456,475.194458 
	C583.928833,477.519135 580.330017,481.881775 577.523010,487.142151 
	C572.946045,495.719482 565.064514,500.883850 557.089966,505.671875 
	C555.479004,503.961121 555.758118,502.568695 555.688965,501.269836 
	C554.450073,477.996704 553.141846,454.726929 552.012024,431.448456 
	C550.243958,395.019104 547.913147,358.598969 547.109375,322.146484 
	C546.418579,290.815460 541.249329,260.220428 535.062012,229.723801 
	C527.122314,190.589523 517.806580,151.753098 508.789001,112.854637 
	C508.125366,109.992004 507.701752,107.090622 504.395630,105.589500 
	C506.258850,104.685776 507.489594,104.962021 508.565491,105.925156 
	C511.891266,108.902466 516.073730,110.145348 520.103455,111.716415 
	C537.312927,118.425941 555.431030,122.554283 572.168091,130.683762 
	C586.717285,137.750519 601.808472,143.971268 614.176514,154.574127 
	C633.529480,171.164978 652.258362,188.463852 667.860046,208.823395 
	C675.863037,219.267029 684.010010,229.601044 692.168701,239.923935 
	C693.606567,241.743301 694.796936,244.021652 697.730042,244.854233 
	C697.679260,240.063751 697.770630,235.663742 699.061462,231.560669 
	C700.504578,226.973236 699.030273,223.859039 695.542175,221.111588 
	C690.788208,217.366943 686.668518,212.996918 683.690613,207.705536 
	C677.080444,195.959976 668.603577,185.785614 658.421631,176.985504 
	C641.877747,162.686859 624.930786,148.797394 605.298096,138.997635 
	C572.928040,122.840034 539.354614,109.898048 503.815552,102.147156 
	C487.433136,98.574226 471.231537,93.744957 455.403046,88.188942 
	C441.761841,83.400688 428.483398,84.549759 413.439880,87.014740 
	C439.913330,93.433014 465.640686,96.578903 491.308472,102.591888 
	C489.801544,105.389999 490.762054,107.378120 491.547821,109.376297 
	C493.192963,113.559784 494.909302,117.715553 496.528870,121.908798 
	C506.611908,148.014877 516.330322,174.302048 521.198425,201.941833 
	C528.727112,244.687653 534.373352,287.731750 539.888611,330.779785 
	C540.650146,336.723846 542.074341,342.801636 540.854553,349.047394 
	C538.011658,348.773621 536.887146,346.730377 535.426147,345.278259 
	C522.381714,332.313080 508.294098,320.729126 492.553284,311.086609 
	C476.323059,301.144318 458.535400,294.068878 442.463898,283.988739 
	C408.048584,262.403259 370.222504,248.460068 332.754730,233.655518 
	C314.127289,226.295319 294.587097,221.934738 275.385193,216.453415 
	C247.693863,208.548691 220.205414,199.932770 192.322479,192.699432 
	C184.346603,190.630356 176.322174,188.748459 167.816559,186.656937 
	C168.693893,185.325226 169.078537,184.374939 169.763046,183.756638 
	C182.486038,172.263840 194.477310,159.944336 208.459244,149.876740 
	C239.703934,127.379204 274.490234,112.709160 311.484406,102.766182 
	C324.662842,99.224197 338.007843,96.235573 350.888702,91.643669 
	C354.937469,90.200333 358.710968,88.254318 361.099701,84.147995 
	C359.545441,82.762329 357.927551,82.469803 356.273254,82.409012 
	C344.605408,81.980232 332.928223,81.876945 321.374542,83.797615 
	C291.396912,88.781082 264.854156,102.242355 239.237625,117.746132 
	C216.231125,131.670258 195.401550,148.620544 174.520508,165.457214 
	C161.572449,175.897415 147.798248,185.426315 137.278839,198.609024 
	C131.871017,205.386017 127.510818,212.616547 126.186005,222.522583 
	C136.044098,215.269318 145.157639,208.884232 153.869690,201.991699 
	C157.221359,199.340012 160.158432,199.201157 163.955109,200.276672 
	C187.191605,206.858994 210.084167,214.542603 233.143097,221.691483 
	C263.198059,231.009369 293.263641,240.293442 323.294189,249.689514 
	C344.094116,256.197479 364.328888,264.572906 385.896759,268.539825 
	C387.106079,268.762268 388.672150,268.695068 389.101379,271.097321 
	C384.628235,273.786163 380.021179,276.697296 375.283203,279.377014 
	C360.910248,287.506073 345.843781,294.248596 330.797821,300.974945 
	C309.049652,310.697540 289.662109,324.202179 270.137726,337.564545 
	C260.391449,344.234741 250.900726,351.420044 239.957413,356.101501 
	C234.665985,358.365143 229.730469,361.078491 225.675140,365.089783 
	C211.052826,379.553680 195.088638,392.274780 177.824905,403.473602 
	C170.161026,408.445068 162.583115,413.847504 156.909485,421.162903 
	C138.745605,444.582886 117.578819,465.048248 95.234009,484.355408 
	C86.678139,491.748169 79.210434,500.512787 69.218887,506.103760 
	C65.607811,508.124390 64.900536,510.605530 65.374359,514.242188 
	C66.833427,525.440735 68.168518,536.655518 69.675201,548.864075 
	C70.755463,542.548950 71.715164,537.173035 71.695992,531.694336 
	C71.666565,523.284973 74.277634,515.577209 80.079132,509.803650 
	C94.727097,495.226288 107.717010,479.091461 122.761131,464.909058 
	C138.060272,450.486237 154.927139,437.973419 171.337509,424.895294 
	C194.923386,406.098755 219.056137,388.022247 243.128281,369.865509 
	C245.783798,367.862518 248.538712,365.463470 252.694717,365.731110 
	C252.832489,370.765625 251.480637,375.394928 250.828918,380.095581 
	C248.591690,396.232391 244.578796,412.123657 244.050964,428.495972 
	C243.313904,451.357391 245.156448,474.050934 248.163345,496.705658 
	C252.869965,532.166443 259.423645,567.283020 266.883789,602.251160 
	C274.910767,639.876221 284.684509,677.043579 295.993225,714.651245 
M57.575104,416.880493 
	C58.074200,413.292969 55.299202,410.354828 55.763035,406.677673 
	C58.388371,385.864777 61.442432,365.126648 67.944351,345.105774 
	C81.280464,304.040833 101.486061,266.130951 122.015938,228.387970 
	C123.532295,225.600250 124.206329,222.792145 124.512421,218.508484 
	C108.585533,237.038055 91.021675,252.620743 81.422577,274.607513 
	C74.291061,290.942291 67.416290,307.349213 61.369286,324.115082 
	C54.685043,342.647827 51.818909,361.643799 51.991402,381.403168 
	C52.157990,400.485809 54.027592,419.474182 54.147797,438.523285 
	C54.300423,462.709900 56.997890,486.678040 59.377716,510.684723 
	C59.578720,512.712402 60.468781,514.310974 62.153214,515.718384 
	C63.189995,513.630432 62.786842,511.787445 62.708000,510.012909 
	C62.087414,496.045349 61.113148,482.100616 60.652748,468.117371 
	C60.099972,451.328522 58.651398,434.569153 57.575104,416.880493 
M373.526489,88.943527 
	C383.452179,89.134918 393.405640,90.494194 403.345734,88.265862 
	C392.377258,85.653511 381.384949,83.518074 370.312225,81.950066 
	C367.377197,81.534431 365.499878,84.137321 364.787415,87.027191 
	C367.274414,89.151321 370.040649,88.650063 373.526489,88.943527 
z"/>
</svg>